<?xml version="1.0" ?><svg height="64" preserveAspectRatio="xMidYMid" viewBox="0 0 512 512" width="64" xmlns="http://www.w3.org/2000/svg" xmlns:xlink="http://www.w3.org/1999/xlink"><defs><style>
      .cls-1 {
        fill: #000;
        fill-rule: evenodd;
      }
    </style></defs><path class="cls-1" d="M256.000,512.000 C114.615,512.000 0.000,397.385 0.000,256.000 C0.000,114.615 114.615,0.000 256.000,0.000 C397.385,0.000 512.000,114.615 512.000,256.000 C512.000,397.385 397.385,512.000 256.000,512.000 ZM248.285,383.804 L295.855,383.804 C295.882,382.789 296.023,381.836 296.023,380.835 C296.023,289.617 222.053,215.906 130.221,215.906 C129.572,215.906 128.905,216.007 128.253,216.023 L128.253,263.281 C128.905,263.273 129.572,263.187 130.221,263.187 C195.820,263.187 248.433,315.679 248.433,380.835 C248.433,381.836 248.308,382.789 248.285,383.804 ZM164.187,384.000 C184.187,384.000 200.372,367.934 200.372,348.066 C200.372,328.221 184.187,312.123 164.187,312.123 C144.208,312.123 128.000,328.221 128.000,348.066 C128.000,367.934 144.208,384.000 164.187,384.000 ZM130.221,128.000 C129.572,128.000 128.905,128.054 128.253,128.054 L128.253,175.313 C128.905,175.313 129.572,175.257 130.221,175.257 C243.376,175.257 336.421,268.437 336.421,380.835 C336.421,381.820 336.359,382.804 336.343,383.804 L383.922,383.804 C383.938,382.804 384.000,381.820 384.000,380.835 C384.000,242.398 269.616,128.000 130.221,128.000 Z"/></svg>