<?xml version="1.0" ?><svg height="64" preserveAspectRatio="xMidYMid" viewBox="0 0 512 512" width="64" xmlns="http://www.w3.org/2000/svg" xmlns:xlink="http://www.w3.org/1999/xlink"><defs><style>
      .cls-1 {
        fill: #000;
        fill-rule: evenodd;
      }
    </style></defs><path class="cls-1" d="M256.000,512.000 C114.615,512.000 0.000,397.385 0.000,256.000 C0.000,114.615 114.615,0.000 256.000,0.000 C397.385,0.000 512.000,114.615 512.000,256.000 C512.000,397.385 397.385,512.000 256.000,512.000 ZM366.734,256.305 C366.734,193.281 315.641,142.188 252.612,142.188 C246.718,142.188 240.980,142.758 235.324,143.626 C223.949,133.914 209.214,128.000 193.079,128.000 C157.145,128.000 128.000,157.132 128.000,193.086 C128.000,207.750 132.917,221.242 141.112,232.125 C139.437,239.930 138.496,248.000 138.496,256.305 C138.496,319.344 189.578,370.438 252.612,370.438 C260.714,370.438 268.610,369.555 276.230,367.945 C287.660,377.930 302.574,384.000 318.921,384.000 C354.863,384.000 384.000,354.867 384.000,318.930 C384.000,301.157 376.871,285.070 365.316,273.336 C366.156,267.750 366.734,262.102 366.734,256.305 ZM286.129,321.000 C277.468,324.633 267.203,326.437 255.332,326.437 C241.093,326.437 229.355,323.969 220.097,319.024 C213.550,315.469 208.215,310.711 204.110,304.773 C200.015,298.844 197.964,293.063 197.964,287.446 C197.964,284.196 199.191,281.406 201.652,279.094 C204.110,276.758 207.245,275.601 211.046,275.601 C214.129,275.601 216.745,276.500 218.871,278.320 C221.011,280.133 222.832,282.805 224.332,286.367 C226.172,290.586 228.152,294.117 230.293,296.945 C232.417,299.781 235.425,302.126 239.284,303.961 C243.159,305.789 248.249,306.719 254.543,306.719 C263.199,306.719 270.238,304.875 275.652,301.157 C281.058,297.462 283.778,292.820 283.778,287.273 C283.778,282.875 282.312,279.290 279.395,276.563 C276.472,273.813 272.699,271.719 268.074,270.274 C263.449,268.820 257.269,267.282 249.519,265.657 C239.156,263.437 230.480,260.812 223.500,257.836 C216.515,254.844 210.965,250.781 206.871,245.626 C202.766,240.461 200.722,234.055 200.722,226.406 C200.722,219.101 202.878,212.625 207.218,206.962 C211.543,201.289 217.800,196.930 226.015,193.883 C234.214,190.836 243.855,189.320 254.942,189.320 C263.793,189.320 271.457,190.336 277.917,192.344 C284.378,194.367 289.730,197.055 293.996,200.399 C298.262,203.750 301.386,207.258 303.347,210.937 C305.316,214.602 306.301,218.211 306.301,221.688 C306.301,224.883 305.074,227.781 302.613,230.336 C300.156,232.899 297.090,234.188 293.417,234.188 C290.062,234.188 287.519,233.414 285.785,231.875 C284.046,230.336 282.156,227.821 280.128,224.321 C277.500,219.320 274.363,215.414 270.676,212.617 C267.000,209.804 261.105,208.406 252.964,208.406 C245.433,208.406 239.344,209.914 234.718,212.969 C230.090,216.008 227.777,219.680 227.777,223.961 C227.777,226.602 228.574,228.906 230.144,230.836 C231.707,232.773 233.878,234.414 236.641,235.805 C239.386,237.188 242.176,238.274 244.996,239.070 C247.816,239.852 252.473,240.993 258.980,242.500 C267.105,244.250 274.465,246.188 281.058,248.289 C287.652,250.406 293.261,252.968 297.886,255.968 C302.511,258.993 306.124,262.813 308.714,267.430 C311.301,272.032 312.606,277.688 312.606,284.383 C312.606,292.399 310.347,299.601 305.863,306.000 C301.371,312.383 294.793,317.399 286.129,321.000 Z"/></svg>